<svg xmlns="http://www.w3.org/2000/svg" viewBox="0 0 191.17 191.55"><defs><style>.cls-1{fill:#eceff4;}</style></defs><title>LurkaLogo-white-</title><g id="Layer_2" data-name="Layer 2"><g id="Layer_1-2" data-name="Layer 1"><path class="cls-1" d="M17.54,45.07c-1.3-1.91-2.24-3.54-3.43-5-2.3-2.78-2.51-5.63-1.14-8.95C17.29,20.68,25.83,16,36.28,14.21c15.75-2.67,27.17,4.28,36,16.73C80.2,42,84.21,54.59,86.82,67.71c2.09,10.51,1.56,11.21-8.66,14.9a109.84,109.84,0,0,1-38.42,6.44C30.6,89,21.59,87.56,13.55,82.82a44.69,44.69,0,0,1-8.61-6.72c-7.81-7.73-6.1-19.89,3.39-25.47C11.28,48.9,14.19,47.09,17.54,45.07Z"/><path class="cls-1" d="M174.06,147c1.06,1.88,2.8,4.13,3.68,6.68,1.49,4.33.1,8.23-2.79,11.7-13.33,16-35.17,17.15-50.15,2.56-9.7-9.44-14.83-21.37-18.27-34.16-1.23-4.58-2.23-9.23-3.17-13.88-1.25-6.15-.28-8.14,5.74-9.95a215.08,215.08,0,0,1,23.38-6.08,83.07,83.07,0,0,1,36.27,1,33.74,33.74,0,0,1,19.07,12.57c4.4,5.9,4.65,12.57-.32,17.92C183.55,139.6,178.71,143,174.06,147Z"/><path class="cls-1" d="M146,18a13.22,13.22,0,0,0,1.13-.71c8-6.55,12.44-6.39,19.84.74,14.77,14.23,13.91,37-1.8,50.9-10.8,9.57-23.8,14.28-37.5,17.54-3.76.89-7.59,1.49-11.4,2.19A3.51,3.51,0,0,1,112,86.35c-9-21.61-13-43.68-6-66.71,2.25-7.42,6-13.81,13.21-17.58,6-3.16,11.1-2.79,16.27,1.72a41.91,41.91,0,0,1,6,6.66C143.1,12.73,144.4,15.32,146,18Z"/><path class="cls-1" d="M44.52,173.88C34.89,182.72,27.36,179,19.91,169c-8.7-11.61-8.31-28,.1-40.22,6.54-9.49,15.93-15,26.5-18.57,8.58-2.86,17.43-4.94,26.18-7.27,3.1-.83,5.32.28,6.67,3.35a105.14,105.14,0,0,1,8.87,37.24c.55,10.4-.17,20.58-4.08,30.35a33,33,0,0,1-9.34,13.56c-6.63,5.51-14.3,5.55-20.29-.63C50.8,183,47.91,178.34,44.52,173.88Z"/></g></g></svg>