<svg xmlns="http://www.w3.org/2000/svg" xmlns:xlink="http://www.w3.org/1999/xlink" viewBox="0 0 275.46 275.14"><defs><style>.cls-1{fill:url(#linear-gradient);}.cls-2{fill:#fdfdfd;}</style><linearGradient id="linear-gradient" x1="137.73" y1="275.14" x2="137.73" gradientUnits="userSpaceOnUse"><stop offset="0" stop-color="#ce504f"/><stop offset="1" stop-color="#b73433"/></linearGradient></defs><title>Lurka clover</title><g id="Layer_2" data-name="Layer 2"><g id="Layer_1-2" data-name="Layer 1"><path class="cls-1" d="M275.46,139.72C274.8,214.67,213,276,136.13,275.13,63.17,274.31-1.81,215.82,0,133.41,1.64,61.93,57.36,8.13,119.42,1.11,164.5-4,203.79,8.44,235.73,40.83,261.83,67.3,275.28,99.59,275.46,139.72ZM83,130.27c12.7-.52,23.86-2.12,34.66-5.86,12.34-4.27,12.57-4.27,9.93-16.7-3.5-16.46-9.1-31.84-21.88-43.86-15.94-15-44.93-8.32-51,9-.87,2.49-1.51,4.58.06,6.86l4.74,6.87c-2.49,1.57-5,3.16-7.49,4.71-.7.43-1.44.78-2.16,1.19a15.71,15.71,0,0,0-3.93,24.24C56.32,128,70,129.88,83,130.27Zm130.85,57.51c5.45-2.69,10.48-5.87,14.43-10.5,4.88-5.71,5-11.89,1.24-17.31-5.87-8.39-14.52-12.64-24.38-14.36-17.68-3.08-34.9-.38-51.7,5.18-9.63,3.19-9.52,3.51-7.66,13.39,0,.16,0,.33.08.49,3.31,15.61,7.86,30.69,19,42.78,12.44,13.47,31.72,15.82,45.08,5C219.24,204.84,223.75,197.86,213.81,187.78Zm-127.3,26.1c2.89,5.77,5.66,11,10.4,14.9,6,4.89,12.07,5.19,18.2.51a31.07,31.07,0,0,0,9.67-13.07c5.62-13.3,5.35-27.05,3.52-41a99.89,99.89,0,0,0-8-27.51c-1.07-2.42-2.28-3.56-5.26-3-12,2.21-23.64,5.34-34.67,10.55-9.7,4.58-17.3,11.32-22,21.18-5.47,11.53-4,32.38,11.83,41.75,4.42,2.62,8.07,1.95,11.88-.48A39.36,39.36,0,0,0,86.51,213.88ZM187.23,60.41c-2.57-5.32-5.29-10.08-9.37-13.89-6.18-5.78-11.84-6.1-18.92-1.58s-10.1,11.82-12.06,19.29c-5.08,19.33-2.58,38.37,4.33,56.79,4.36,11.61,2.52,9.22,13.28,7.5,2-.31,3.93-.74,5.86-1.23,14.51-3.7,28.28-8.82,38.89-20.1,12.47-13.25,11.92-33.25,1.31-44.87C200.13,50.91,195.37,52.95,187.23,60.41Z"/><path class="cls-2" d="M83,130.27C70,129.88,56.32,128,45.9,116.75a15.71,15.71,0,0,1,3.93-24.24c.71-.41,1.46-.75,2.16-1.19,2.5-1.56,5-3.14,7.49-4.71l-4.74-6.87c-1.58-2.28-.93-4.37-.06-6.86,6.07-17.36,35.06-24,51-9,12.78,12,18.38,27.4,21.88,43.86,2.64,12.43,2.42,12.43-9.93,16.7C106.82,128.15,95.67,129.75,83,130.27Z"/><path class="cls-2" d="M213.81,187.78c9.94,10.08,5.43,17.06-3.88,24.62-13.37,10.86-32.64,8.51-45.08-5-11.16-12.08-15.72-27.17-19-42.78,0-.16,0-.33-.08-.49-1.86-9.88-2-10.2,7.66-13.39,16.8-5.56,34-8.26,51.7-5.18,9.86,1.72,18.51,6,24.38,14.36,3.79,5.42,3.64,11.6-1.24,17.31C224.29,181.91,219.26,185.09,213.81,187.78Z"/><path class="cls-2" d="M86.51,213.88a39.36,39.36,0,0,1-4.43,3.88c-3.81,2.42-7.46,3.09-11.88.48C54.38,208.87,52.9,188,58.37,176.49c4.68-9.87,12.29-16.6,22-21.18,11-5.21,22.7-8.34,34.67-10.55,3-.55,4.19.59,5.26,3a99.89,99.89,0,0,1,8,27.51c1.84,13.9,2.1,27.65-3.52,41a31.07,31.07,0,0,1-9.67,13.07c-6.13,4.68-12.24,4.38-18.2-.51C92.17,224.89,89.39,219.65,86.51,213.88Z"/><path class="cls-2" d="M187.23,60.41c8.14-7.46,12.9-9.5,23.32,1.92,10.61,11.62,11.15,31.62-1.31,44.87-10.61,11.28-24.38,16.4-38.89,20.1-1.93.49-3.89.92-5.86,1.23-10.76,1.72-8.92,4.11-13.28-7.5-6.91-18.41-9.41-37.46-4.33-56.79,2-7.47,4.93-14.74,12.06-19.29s12.74-4.2,18.92,1.58C181.94,50.33,184.66,55.09,187.23,60.41Z"/></g></g></svg>