<svg xmlns="http://www.w3.org/2000/svg" xmlns:xlink="http://www.w3.org/1999/xlink" viewBox="0 0 94.5 94.57"><defs><style>.cls-1{fill:url(#linear-gradient);}.cls-2{fill:url(#linear-gradient-2);}.cls-3{fill:url(#linear-gradient-3);}.cls-4{fill:url(#linear-gradient-4);}.cls-5{fill:url(#linear-gradient-5);}.cls-6{fill:url(#linear-gradient-6);}.cls-7{fill:none;}.cls-8{fill:url(#linear-gradient-7);}.cls-9{fill:url(#linear-gradient-8);}.cls-10{fill:url(#linear-gradient-9);}.cls-11{fill:url(#linear-gradient-10);}.cls-12{fill:url(#linear-gradient-11);}.cls-13{fill:#fff;}.cls-14{fill:url(#linear-gradient-12);}.cls-15{fill:#e6e6e6;}.cls-16{fill:url(#linear-gradient-13);}.cls-17{fill:url(#linear-gradient-14);}.cls-18{fill:url(#linear-gradient-16);}.cls-19{fill:url(#linear-gradient-17);}.cls-20{fill:url(#linear-gradient-18);}.cls-21{fill:gray;}.cls-22{fill:#333;}</style><linearGradient id="linear-gradient" x1="5.53" y1="49.88" x2="5.53" y2="49.88" gradientUnits="userSpaceOnUse"><stop offset="0.11" stop-color="#ef6e63"/><stop offset="1" stop-color="#c1272d"/></linearGradient><linearGradient id="linear-gradient-2" x1="1.57" y1="56.6" x2="1.57" y2="56.6" xlink:href="#linear-gradient"/><linearGradient id="linear-gradient-3" x1="13.87" y1="47.51" x2="80.25" y2="47.51" xlink:href="#linear-gradient"/><linearGradient id="linear-gradient-4" x1="16.95" y1="54.07" x2="26.43" y2="54.07" xlink:href="#linear-gradient"/><linearGradient id="linear-gradient-5" x1="0" y1="48" x2="1" y2="48" xlink:href="#linear-gradient"/><linearGradient id="linear-gradient-6" x1="68.55" y1="54.1" x2="78.08" y2="54.1" xlink:href="#linear-gradient"/><linearGradient id="linear-gradient-7" x1="0.42" y1="47.35" x2="0.5" y2="47.35" xlink:href="#linear-gradient"/><linearGradient id="linear-gradient-8" x1="16.59" y1="40.22" x2="26.97" y2="40.22" xlink:href="#linear-gradient"/><linearGradient id="linear-gradient-9" x1="95" y1="47" x2="95" y2="47" xlink:href="#linear-gradient"/><linearGradient id="linear-gradient-10" x1="68.57" y1="40.93" x2="78.05" y2="40.93" xlink:href="#linear-gradient"/><linearGradient id="linear-gradient-11" x1="9.5" y1="74.43" x2="32.66" y2="74.43" xlink:href="#linear-gradient"/><linearGradient id="linear-gradient-12" x1="61.16" y1="72.86" x2="85.5" y2="72.86" xlink:href="#linear-gradient"/><linearGradient id="linear-gradient-13" x1="61.15" y1="22.14" x2="85.5" y2="22.14" xlink:href="#linear-gradient"/><linearGradient id="linear-gradient-14" x1="9.5" y1="20.57" x2="32.65" y2="20.57" xlink:href="#linear-gradient"/><linearGradient id="linear-gradient-16" x1="34.53" y1="18.89" x2="59.74" y2="18.89" xlink:href="#linear-gradient"/><linearGradient id="linear-gradient-17" x1="0.5" y1="47.5" x2="94.5" y2="47.5" xlink:href="#linear-gradient"/><linearGradient id="linear-gradient-18" x1="35.79" y1="76.11" x2="59.78" y2="76.11" xlink:href="#linear-gradient"/></defs><title>Asset 1</title><g id="Layer_2" data-name="Layer 2"><g id="Layer_1-2" data-name="Layer 1"><path class="cls-1" d="M5.53,49.88"/><path class="cls-2" d="M1.57,56.6"/><path class="cls-3" d="M13.89,40.64a17.79,17.79,0,0,0,2.7,2.65,18.62,18.62,0,0,0,7.92,3.78,22.91,22.91,0,0,1,7.27-16.34A49.87,49.87,0,0,0,13.89,40.64ZM26.43,56.71a22.56,22.56,0,0,1-1.92-8.78A18.79,18.79,0,0,0,17,51.42a18.42,18.42,0,0,0-3.08,3A49.72,49.72,0,0,0,31.81,64.3,22.82,22.82,0,0,1,26.43,56.71Zm51.65-5.27a18.82,18.82,0,0,0-7.59-3.51,22.93,22.93,0,0,1-6.26,15.34,50,50,0,0,0,16-9.87A17.45,17.45,0,0,0,78.08,51.44ZM64.24,31.74a23,23,0,0,1,6.25,15.33A18.79,18.79,0,0,0,78,43.58a18,18,0,0,0,2.2-2A49.7,49.7,0,0,0,64.24,31.74Z"/><path class="cls-4" d="M26.43,56.71A49.83,49.83,0,0,0,17,51.42"/><line class="cls-5" x1="1" y1="48" y2="48"/><path class="cls-6" d="M78.08,51.44a50.43,50.43,0,0,0-9.53,5.32"/><path class="cls-7" d="M47.62,94.5a.17.17,0,0,0,0,.07"/><path class="cls-8" d="M.5,47.34H.42"/><path class="cls-9" d="M27,37.14a50.18,50.18,0,0,1-10.38,6.15"/><line class="cls-7" x1="46" y1="1" x2="46"/><line class="cls-10" x1="95" y1="47" x2="95" y2="47"/><path class="cls-11" d="M78.05,43.58a49.29,49.29,0,0,1-9.48-5.29"/><path class="cls-12" d="M32.66,85a18.42,18.42,0,0,1-4.16.47,19,19,0,0,1-19-19,18.06,18.06,0,0,1,.27-3.14A40.07,40.07,0,0,0,32.66,85Z"/><path class="cls-13" d="M31.81,64.3a49.72,49.72,0,0,1-17.94-9.91,18.42,18.42,0,0,1,3.08-3,18.79,18.79,0,0,1,7.56-3.49,22.56,22.56,0,0,0,1.92,8.78A22.82,22.82,0,0,0,31.81,64.3Z"/><path class="cls-13" d="M80.24,53.4a50,50,0,0,1-16,9.87,22.93,22.93,0,0,0,6.26-15.34,18.82,18.82,0,0,1,7.59,3.51A17.45,17.45,0,0,1,80.24,53.4Z"/><path class="cls-14" d="M85.5,66.5A19,19,0,0,1,61.16,84.73,40.14,40.14,0,0,0,84.43,60.22,19,19,0,0,1,85.5,66.5Z"/><path class="cls-15" d="M80.25,41.6a18,18,0,0,1-2.2,2,18.79,18.79,0,0,1-7.56,3.49,23,23,0,0,0-6.25-15.33A49.7,49.7,0,0,1,80.25,41.6Z"/><path class="cls-16" d="M85.5,28.5a19,19,0,0,1-1.07,6.28A40.08,40.08,0,0,0,61.15,10.27,19,19,0,0,1,85.5,28.5Z"/><path class="cls-17" d="M32.65,10A40.13,40.13,0,0,0,9.77,31.65,18.18,18.18,0,0,1,9.5,28.5,19,19,0,0,1,32.65,10Z"/><path class="cls-15" d="M31.78,30.73a22.91,22.91,0,0,0-7.27,16.34,18.62,18.62,0,0,1-7.92-3.78,17.79,17.79,0,0,1-2.7-2.65A49.87,49.87,0,0,1,31.78,30.73Z"/><path class="cls-17" d="M32.65,10A40.13,40.13,0,0,0,9.77,31.65,18.18,18.18,0,0,1,9.5,28.5,19,19,0,0,1,32.65,10Z"/><path class="cls-18" d="M59.74,30.28A50.18,50.18,0,0,0,49.47,28.6c-.66,0-1.32-.07-2-.08a49.73,49.73,0,0,0-13,1.44q1.15-1.35,2.22-2.79a49.4,49.4,0,0,0,6.15-11,48.52,48.52,0,0,0,2.58-8.62c1,0,2,0,3,0a48.19,48.19,0,0,0,2.92,9.38,49.69,49.69,0,0,0,5.28,9.49C57.66,27.76,58.67,29,59.74,30.28Z"/><path class="cls-19" d="M92.88,35.22A47,47,0,0,0,50.26.58c-.9,0-1.78-.08-2.67-.08H46.41A47,47,0,0,0,.58,44.74c0,.87-.08,1.74-.08,2.6v.25A47,47,0,0,0,44.74,94.42c.9,0,1.78.08,2.67.08h.21a47,47,0,0,0,46.8-44.24c0-.89.08-1.78.08-2.66v-.19A46.86,46.86,0,0,0,92.88,35.22ZM66.5,9.5A19,19,0,0,1,84.43,34.78,40.08,40.08,0,0,0,61.15,10.27,18.91,18.91,0,0,1,66.5,9.5Zm-38,0a19,19,0,0,1,4.15.46A40.13,40.13,0,0,0,9.77,31.65,18.18,18.18,0,0,1,9.5,28.5,19,19,0,0,1,28.5,9.5Zm-22,37s0,0,0,0m22,39a19,19,0,0,1-19-19,18.06,18.06,0,0,1,.27-3.14A40.07,40.07,0,0,0,32.66,85,18.42,18.42,0,0,1,28.5,85.5Zm38,0a18.89,18.89,0,0,1-5.34-.77A40.14,40.14,0,0,0,84.43,60.22,19,19,0,0,1,66.5,85.5ZM84.25,49.29a47.13,47.13,0,0,1-4,4.11,50,50,0,0,1-16,9.87c-1.45.55-2.94,1-4.45,1.45a32.63,32.63,0,0,1-3,3.28h0a78.66,78.66,0,0,0-5.31,10.08,49.26,49.26,0,0,0-2.91,9.37c-.68,0-1.36,0-2,0A49.81,49.81,0,0,0,43.57,78a36.81,36.81,0,0,0-5.28-9h0a17.86,17.86,0,0,0-2.49-3.65c-1.35-.3-2.68-.65-4-1A50,50,0,0,1,8.21,48.66q-.46-.55-.93-1.14c.4-.5.81-1,1.23-1.48a49,49,0,0,1,5.38-5.4,49.87,49.87,0,0,1,17.89-9.91c.9-.29,1.82-.54,2.75-.77q1.15-1.35,2.22-2.79a49.4,49.4,0,0,0,6.15-11,48.52,48.52,0,0,0,2.58-8.62c1,0,2,0,3,0a48.19,48.19,0,0,0,2.92,9.38,49.69,49.69,0,0,0,5.28,9.49c.95,1.33,2,2.62,3,3.85,1.53.42,3,.91,4.5,1.46a49.7,49.7,0,0,1,16,9.86,48.87,48.87,0,0,1,4,4.12c.51.58,1,1.17,1.47,1.78C85.26,48.11,84.77,48.7,84.25,49.29Zm2.23-.55a2.8,2.8,0,0,0,0-.29l.19.25Z"/><path class="cls-15" d="M85.74,47.5c-.48.61-1,1.2-1.49,1.79a47.13,47.13,0,0,1-4,4.11,17.45,17.45,0,0,0-2.16-2,18.82,18.82,0,0,0-7.59-3.51c0-.14,0-.29,0-.43s0-.29,0-.43A18.79,18.79,0,0,0,78,43.58a18,18,0,0,0,2.2-2,48.87,48.87,0,0,1,4,4.12C84.78,46.3,85.27,46.89,85.74,47.5Z"/><path class="cls-15" d="M24.5,47.5c0,.14,0,.29,0,.43A18.79,18.79,0,0,0,17,51.42a18.42,18.42,0,0,0-3.08,3,49.41,49.41,0,0,1-5.66-5.73q-.46-.55-.93-1.14c.4-.5.81-1,1.23-1.48a49,49,0,0,1,5.38-5.4,17.79,17.79,0,0,0,2.7,2.65,18.62,18.62,0,0,0,7.92,3.78C24.5,47.21,24.5,47.36,24.5,47.5Z"/><path class="cls-20" d="M59.78,64.72a32.63,32.63,0,0,1-3,3.28h0a78.66,78.66,0,0,0-5.31,10.08,49.26,49.26,0,0,0-2.91,9.37c-.68,0-1.36,0-2,0A49.81,49.81,0,0,0,43.57,78a36.81,36.81,0,0,0-5.28-9h0a17.86,17.86,0,0,0-2.49-3.65,51.9,51.9,0,0,0,7.77,1.06c1.32.08,2.63.1,3.94.08A49.88,49.88,0,0,0,59.78,64.72Z"/><path class="cls-21" d="M70.49,47.07c0,.14,0,.29,0,.43s0,.29,0,.43a22.93,22.93,0,0,1-6.26,15.34c-1.45.55-2.94,1-4.45,1.45A49.88,49.88,0,0,1,47.5,66.49c-1.31,0-2.62,0-3.94-.08a51.91,51.91,0,0,1-7.77-1.06c-1.35-.3-2.68-.65-4-1a22.82,22.82,0,0,1-5.38-7.59,22.56,22.56,0,0,1-1.92-8.78c0-.14,0-.29,0-.43s0-.29,0-.43a22.91,22.91,0,0,1,7.27-16.34c.9-.29,1.82-.54,2.75-.77a49.73,49.73,0,0,1,13-1.44c.65,0,1.31,0,2,.08a50.18,50.18,0,0,1,10.27,1.68c1.53.42,3,.91,4.5,1.46a23,23,0,0,1,6.25,15.33Zm-12,.43a10.16,10.16,0,0,0-.16-1.84,11,11,0,0,0-9-9,10.66,10.66,0,0,0-3.68,0,11,11,0,0,0-9,9,10.66,10.66,0,0,0,0,3.68,11,11,0,0,0,9,9,10.66,10.66,0,0,0,3.68,0,11,11,0,0,0,9-9A10.16,10.16,0,0,0,58.5,47.5Z"/><path class="cls-22" d="M58.5,47.5a10.16,10.16,0,0,1-.16,1.84,11,11,0,0,1-9,9,10.66,10.66,0,0,1-3.68,0,11,11,0,0,1-9-9,10.66,10.66,0,0,1,0-3.68,11,11,0,0,1,9-9,10.66,10.66,0,0,1,3.68,0,11,11,0,0,1,9,9A10.16,10.16,0,0,1,58.5,47.5Z"/></g></g></svg>