<svg xmlns="http://www.w3.org/2000/svg" xmlns:xlink="http://www.w3.org/1999/xlink" viewBox="0 0 144.48 144.12"><defs><style>.cls-1{fill:#fff;}.cls-2{fill:url(#linear-gradient);}.cls-3{fill:url(#radial-gradient);}.cls-4{fill:#300;}</style><linearGradient id="linear-gradient" x1="72.24" y1="144.12" x2="72.24" gradientUnits="userSpaceOnUse"><stop offset="0" stop-color="#d71800"/><stop offset="0.21" stop-color="#e8391b"/><stop offset="0.41" stop-color="#f5512f"/><stop offset="0.6" stop-color="#fc603b"/><stop offset="0.76" stop-color="#ff653f"/></linearGradient><radialGradient id="radial-gradient" cx="71.87" cy="70.7" r="31.72" gradientUnits="userSpaceOnUse"><stop offset="0.17" stop-color="#c93e1f"/><stop offset="0.32" stop-color="#cc4021"/><stop offset="0.4" stop-color="#ca3f20"/><stop offset="0.77" stop-color="#ff653f"/><stop offset="1" stop-color="#c82000"/></radialGradient></defs><title>Lurka 5</title><g id="Layer_2" data-name="Layer 2"><g id="Layer_1-2" data-name="Layer 1"><ellipse class="cls-1" cx="72.54" cy="71.94" rx="65.24" ry="60.76"/><path class="cls-2" d="M72.28,0a72.06,72.06,0,1,0,66.65,99.7A72,72,0,0,0,72.28,0Zm62.24,74.39c-1.81,1.8-3.64,3.55-5.52,5.24-12.55,11.31-26.8,20.07-44.29,23.92a66.25,66.25,0,0,1-7.56,1.13c-1.83.17-3.69,0-5.53,0-15.31,0-29-5.05-41.17-13.26A178.54,178.54,0,0,1,15,79.34c-1.75-1.48-3.49-3-5.25-4.43-2.87-2.39-3.2-5.37-.46-8.1C24.18,52,41.13,40.25,63.23,36.91c14.6-2.2,28.23,1.08,41,7.58A114.55,114.55,0,0,1,134,66.3C136.58,68.94,137.32,71.59,134.52,74.39Z"/><path class="cls-3" d="M104.29,70.76c-.05,17.12-14.59,31-32.48,30.94s-32.38-14-32.36-31a29.37,29.37,0,0,1,1-7.77C44.13,49.55,56.87,39.67,71.92,39.7s27.73,9.91,31.34,23.2A29.68,29.68,0,0,1,104.29,70.76Z"/><path class="cls-4" d="M88.61,70.23c0,8.58-7.32,15.53-16.29,15.51s-16.24-7-16.23-15.57a14.73,14.73,0,0,1,.52-3.9,16.46,16.46,0,0,1,31.47,0A14.88,14.88,0,0,1,88.61,70.23Z"/><path class="cls-1" d="M96.08,55.22a9.74,9.74,0,0,1-19.45,0,8.81,8.81,0,0,1,.31-2.33,9.85,9.85,0,0,1,18.83,0A8.9,8.9,0,0,1,96.08,55.22Z"/></g></g></svg>